<svg width="32" height="32" viewBox="0 0 32 32" fill="none" xmlns="http://www.w3.org/2000/svg">
  <!-- Shield background -->
  <path d="M16 2L28 8V16C28 22.6274 22.6274 28 16 28C9.37258 28 4 22.6274 4 16V8L16 2Z" fill="#1e40af" stroke="#1e3a8a" stroke-width="1"/>
  
  <!-- Shield highlight -->
  <path d="M16 2L28 8V16C28 22.6274 22.6274 28 16 28C9.37258 28 4 22.6274 4 16V8L16 2Z" fill="url(#shieldGradient)" opacity="0.8"/>
  
  <!-- Lock body -->
  <rect x="12" y="14" width="8" height="6" rx="1" fill="#fbbf24" stroke="#f59e0b" stroke-width="0.5"/>
  
  <!-- Lock shackle -->
  <path d="M14 14V12C14 10.8954 14.8954 10 16 10C17.1046 10 18 10.8954 18 12V14" stroke="#f59e0b" stroke-width="1.5" fill="none"/>
  
  <!-- Keyhole -->
  <circle cx="16" cy="16" r="1" fill="#1e3a8a"/>
  <rect x="15.5" y="16" width="1" height="2" fill="#1e3a8a"/>
  
  <!-- Gradient definitions -->
  <defs>
    <linearGradient id="shieldGradient" x1="0%" y1="0%" x2="100%" y2="100%">
      <stop offset="0%" style="stop-color:#3b82f6;stop-opacity:1" />
      <stop offset="100%" style="stop-color:#1e40af;stop-opacity:1" />
    </linearGradient>
  </defs>
</svg>
